# xmcd
#
# Track frame offsets: 
#        150
#        21830
#        42670
#        59932
#        80825
#        95042
#        108010
#        118855
#
# Disc length: 2194 seconds
#
# Revision: 2
# Processed by: cddbd v1.5.1PL0 Copyright (c) Steve Scherf et al.
# Submitted via: ExactAudioCopy v0.95b1
#
DISCID=74089008
DTITLE=Groundhogs - Who Will Save The World?
DYEAR=1972
DGENRE=Rock
TTITLE0=Earth Is Not Room Enough
TTITLE1=Wages Of Peace
TTITLE2=Body In Mind
TTITLE3=Music Is The Food Of Thought
TTITLE4=Bog Roll Blues
TTITLE5=Death Of The Sun
TTITLE6=Amazing Grace
TTITLE7=The Grey Maze
EXTD=ARD BGO Records BGOCD 77 1972 ID3G:   0
EXTT0=
EXTT1=
EXTT2=
EXTT3=
EXTT4=
EXTT5=
EXTT6=
EXTT7=
PLAYORDER=
